<?xml version="1.0" encoding="UTF-8"?>
<svg id="Calque_1" data-name="Calque 1" xmlns="http://www.w3.org/2000/svg" viewBox="0 0 1000 1000">
  <defs>
    <style>
      .cls-1 {
        fill: #fbfbfe;
      }

      .cls-2 {
        fill: #6555fa;
      }
    </style>
  </defs>
  <path class="cls-2" d="m0,40v920c0,22.09,17.91,40,40,40h660v-260c0-22.09,17.91-40,40-40h260V40c0-22.09-17.91-40-40-40H40C17.91,0,0,17.91,0,40Z"/>
  <path class="cls-2" d="m750,790v210l250-250h-210c-22.09,0-40,17.91-40,40Z"/>
  <path class="cls-1" d="m290,856.5c-20.67,0-36.5-5.84-47.5-17.5s-16.5-27.83-16.5-48.5V208.5c0-21.33,5.66-37.5,17-48.5,11.33-11,27.33-16.5,48-16.5h241c77.33,0,137,19.34,179,58,42,38.67,63,92.67,63,162s-21,123.5-63,162.5c-42,39-101.67,58.5-179,58.5h-178v206c0,20.67-5.34,36.84-16,48.5-10.67,11.66-26.67,17.5-48,17.5Zm64-373h158c45.33,0,79.66-10.16,103-30.5,23.33-20.33,35-50.16,35-89.5s-11.67-69-35-89c-23.34-20-57.67-30-103-30h-158v239Z"/>
</svg>